<?xml version="1.0" encoding="iso-8859-1"?>
<!-- Generator: Adobe Illustrator 19.0.0, SVG Export Plug-In . SVG Version: 6.00 Build 0)  -->
<svg version="1.1" id="Capa_1" xmlns="http://www.w3.org/2000/svg" xmlns:xlink="http://www.w3.org/1999/xlink" x="0px" y="0px"
	 viewBox="0 0 511.901 511.901" style="enable-background:new 0 0 511.901 511.901;" xml:space="preserve">
<path style="fill:#F6BB42;" d="M123.179,267.979c-39.758,0-71.986,32.228-71.986,71.986v107.979h143.972V339.966
	C195.165,300.207,162.937,267.979,123.179,267.979z"/>
<path style="fill:#EAC6BB;" d="M159.25,309.393c-0.5-0.219-21.988-0.781-36.071-1.141c-14.083,0.359-35.571,0.922-36.071,1.141
	c-0.75,0.335-19.832,33.446-19.832,33.446v8.482c0,35.712,34.618,68.534,55.903,68.612c21.285-0.078,55.903-32.9,55.903-68.612
	v-8.482C179.082,342.841,160,309.729,159.25,309.393z"/>
<g style="opacity:0.2;">
	<path d="M159.25,309.393c-0.5-0.219-21.988-0.781-36.071-1.141c-2.484,0.062-5.21,0.141-7.999,0.203
		c13.021,0.344,27.659,0.758,28.073,0.938c0.75,0.335,19.832,33.446,19.832,33.446v8.482c0,31.51-26.94,60.73-47.905,67.237
		c2.797,0.875,5.491,1.367,7.999,1.375c21.285-0.078,55.903-32.9,55.903-68.612v-8.482C179.082,342.841,160,309.729,159.25,309.393z
		"/>
</g>
<g style="opacity:0.3;">
	<path style="fill:#FFFFFF;" d="M83.272,351.323v-8.482c0,0,19.083-33.111,19.833-33.446c0.414-0.18,15.052-0.594,28.072-0.938
		c-2.788-0.062-5.515-0.141-7.998-0.203c-14.083,0.359-35.571,0.922-36.071,1.141c-0.75,0.335-19.832,33.446-19.832,33.446v8.482
		c0,35.712,34.618,68.534,55.903,68.612c2.507-0.008,5.202-0.5,7.998-1.375C110.212,412.053,83.272,382.832,83.272,351.323z"/>
</g>
<path style="fill:#FFCE54;" d="M52.224,351.651c21.785-6.108,71.767-24.964,86.952-33.681
	c23.199-13.186,37.235-25.604,37.602-25.933c-13.177-14.731-32.275-24.058-53.599-24.058c-39.758,0-71.986,32.228-71.986,71.986
	C51.193,343.948,51.599,347.84,52.224,351.651z"/>
<g style="opacity:0.5;">
	<path style="fill:#FFFFFF;" d="M59.191,339.966c0-38.353,30.026-69.612,67.839-71.775c-1.289-0.07-2.546-0.211-3.851-0.211
		c-39.758,0-71.986,32.228-71.986,71.986c0,3.982,0.406,7.873,1.031,11.685c2.265-0.641,4.89-1.438,7.693-2.327
		C59.495,346.262,59.191,343.152,59.191,339.966z"/>
</g>
<path style="fill:#F6BB42;" d="M195.165,339.966c0-19.31-7.639-36.799-20.02-49.71l-35.97,27.792c0,0,17.864,19.746,55.544,29.791
	C195.001,345.246,195.165,342.621,195.165,339.966z"/>
<g style="opacity:0.2;">
	<path d="M176.731,292.069c0.008,0,0.047-0.031,0.047-0.031c-0.203-0.234-0.438-0.438-0.648-0.656
		c-0.335-0.375-0.64-0.766-0.984-1.125c-0.031-0.039-0.117-0.016-0.164-0.031c-13.091-13.653-31.392-22.245-51.802-22.245
		c-1.375,0-2.719,0.125-4.078,0.203c18.817,1.03,35.642,9.279,47.881,22.042c0.047,0.016,0.133-0.008,0.164,0.031
		c0.344,0.359,0.648,0.75,0.984,1.125c0.211,0.219,0.445,0.422,0.648,0.656c0,0-0.039,0.031-0.047,0.031
		c11.412,12.724,18.434,29.463,18.434,47.897c0,1.866-0.164,3.694-0.312,5.529c2.531,0.812,5.132,1.609,7.866,2.344
		c0.281-2.594,0.445-5.218,0.445-7.873C195.165,321.531,188.143,304.793,176.731,292.069z"/>
</g>
<path style="fill:#EAC6BB;" d="M165.616,423.277c9.998,3.358,23.839,8.077,26.081,8.873c13.514,5.046,20.23,10.084,20.23,23.604
	c0,13.436,0,28.151,0,28.151H35.961c0,0,0-14.716,0-28.151c0-13.521,14.716-18.559,28.236-23.604
	c1.438-0.477,6.077-2.632,11.279-4.952c6.718-2.96,14.317-6.318,16.958-7.279v-1.039v-15.114
	c10.396,9.912,22.23,16.153,31.509,16.153c9.358,0,21.277-6.319,31.759-16.481l0.234,0.242v16.239
	C157.383,420.404,161.14,421.677,165.616,423.277z"/>
<path style="fill:#5D9CEC;" d="M507.776,483.938H315.813v-7.998c0,0,0-5.358,0-18.638c0-13.356,6.717-18.395,19.996-23.354
	c6.547-2.483,18.309-6.874,27.994-11.514l9.357-9.279l22.793,22.792l15.998-7.92l15.996,7.92l22.715-22.714l9.123,9.115
	c9.748,4.726,21.434,9.116,27.994,11.6c13.357,4.96,19.996,9.998,19.996,23.354c0,13.279,0,18.638,0,18.638v7.998H507.776z"/>
<g style="opacity:0.3;">
	<path style="fill:#FFFFFF;" d="M331.811,457.302c0-13.356,6.717-18.395,19.996-23.354c6.545-2.483,18.309-6.874,27.994-11.514
		l1.328-1.312l-7.969-7.968l-9.357,9.279c-9.686,4.64-21.447,9.03-27.994,11.514c-13.279,4.96-19.996,9.998-19.996,23.354
		c0,13.279,0,18.638,0,18.638v7.998h15.998v-7.998C331.811,475.94,331.811,470.582,331.811,457.302z"/>
</g>
<g style="opacity:0.2;">
	<path d="M491.936,457.302c0-13.356-6.719-18.395-19.996-23.354c-6.547-2.483-18.309-6.874-27.994-11.514l-1.328-1.312l7.967-7.968
		l9.357,9.279c9.686,4.64,21.449,9.03,27.994,11.514c13.279,4.96,19.996,9.998,19.996,23.354c0,13.279,0,18.638,0,18.638v7.998
		h-15.996v-7.998C491.936,475.94,491.936,470.582,491.936,457.302z"/>
</g>
<g>
	<polygon style="fill:#E6E9ED;" points="396.126,436.54 372.132,412.546 380.13,404.547 412.249,421.638 412.249,428.543 	"/>
	<polygon style="fill:#E6E9ED;" points="428.12,436.54 452.116,412.546 444.118,404.547 411.999,421.638 411.999,428.543 	"/>
</g>
<path style="fill:#656D78;" d="M363.882,276.572c0,0,111.979-39.988,104.215,63.987l-16.871-23.995
	c-34.885-2.078-73.908,13.521-95.264,23.683c-9.998,4.796-16.074,8.312-16.074,8.312c0-49.99,32.635-63.988,32.635-63.988
	L363.882,276.572z"/>
<g style="opacity:0.2;">
	<path d="M403.921,269.104c27.309,0.945,56.115,13.201,56.521,60.567l7.654,10.888C472.706,278.915,435.212,267.871,403.921,269.104
		z"/>
</g>
<g style="opacity:0.3;">
	<path style="fill:#FFFFFF;" d="M381.13,286.444l-9.248-9.873c0,0,18.559-6.624,40.039-7.468
		c-24.652-0.843-48.039,7.468-48.039,7.468l8.641,7.998c0,0-32.635,13.998-32.635,63.988c0,0,2.998-1.734,8.17-4.391
		C349.948,297.833,381.13,286.444,381.13,286.444z"/>
</g>
<path style="fill:#EAC6BB;" d="M468.096,340.559v8.077c0,37.992-34.633,73.032-55.988,73.032c-21.277,0-55.99-35.04-55.99-73.032
	v-8.077l-0.156-0.312c21.355-10.162,60.379-25.761,95.264-23.683L468.096,340.559z"/>
<g style="opacity:0.2;">
	<path d="M451.225,316.564c-5.203-0.305-10.498-0.125-15.811,0.281l16.686,23.714v8.077c0,33.532-26.965,64.722-47.977,71.596
		c2.797,0.914,5.484,1.437,7.984,1.437c21.355,0,55.988-35.04,55.988-73.032v-8.077L451.225,316.564z"/>
</g>
<g style="opacity:0.3;">
	<path style="fill:#FFFFFF;" d="M372.116,348.637v-8.077l-0.156-0.312c18.168-8.646,49.131-21.128,79.453-23.401l-0.188-0.281
		c-34.885-2.078-73.908,13.521-95.264,23.683l0.156,0.312v8.077c0,37.992,34.713,73.032,55.99,73.032
		c2.514,0,5.217-0.522,8.014-1.437C399.141,413.358,372.116,382.168,372.116,348.637z"/>
</g>
<path style="fill:#E6E9ED;" d="M362.227,95.262c12.871,12.794,12.871,33.591,0,46.389l-46.32,46.312l-46.381-46.312
	c-12.802-12.798-12.802-33.595,0-46.389c12.793-12.799,33.586-12.799,46.381,0C328.718,82.464,349.432,82.464,362.227,95.262z"/>
<path style="fill:#FFFFFF;" d="M285.522,141.651c-11.686-18.328-12.795-33.595,0-46.389c4.344-4.344,9.623-7.093,15.186-8.487
	c-10.811-2.714-22.73,0.031-31.182,8.487c-12.802,12.794-12.802,33.591,0,46.389l46.381,46.312L285.522,141.651z"/>
<g style="opacity:0.2;">
	<path d="M346.292,141.651c11.686-18.328,12.795-33.595,0-46.389c-4.342-4.344-9.623-7.093-15.184-8.487
		c10.811-2.714,22.729,0.031,31.182,8.487c12.793,12.794,12.793,33.591,0,46.389l-46.383,46.312L346.292,141.651z"/>
</g>
<path style="fill:#EC87C0;" d="M187.932,219.957c0,4.397,1.844,8.396,4.718,11.279l-4.718,4.718H91.95v15.997l-23.996-15.997h-47.99
	c-8.795,0-15.997-7.198-15.997-15.997v-71.986c0-8.799,7.202-15.997,15.997-15.997h159.969h7.999V219.957z"/>
<g style="opacity:0.3;">
	<path style="fill:#FFFFFF;" d="M19.964,219.957v-71.986c0-8.799,7.202-15.997,15.997-15.997H19.964
		c-8.795,0-15.997,7.198-15.997,15.997v71.986c0,8.799,7.202,15.997,15.997,15.997h15.997
		C27.166,235.954,19.964,228.756,19.964,219.957z"/>
</g>
<path style="fill:#AC92EC;" d="M443.884,43.991v175.966c0,8.799-7.188,15.997-15.998,15.997h-39.992v15.997l-47.99-15.997H203.929
	c-4.397,0-8.397-1.762-11.279-4.718c-2.874-2.883-4.718-6.882-4.718-11.279v-87.983V43.991c0-8.8,7.202-15.997,15.997-15.997
	h223.957C436.696,27.994,443.884,35.191,443.884,43.991z M362.227,141.651c12.871-12.798,12.871-33.595,0-46.389
	c-12.795-12.799-33.51-12.799-46.32,0c-12.795-12.799-33.588-12.799-46.381,0c-12.802,12.794-12.802,33.591,0,46.389l46.381,46.312
	L362.227,141.651z"/>
<g style="opacity:0.3;">
	<path style="fill:#FFFFFF;" d="M203.929,219.957v-87.983V43.991c0-8.8,7.202-15.997,15.997-15.997h-15.997
		c-8.795,0-15.997,7.197-15.997,15.997v87.982v87.983c0,4.397,1.844,8.396,4.718,11.279c2.882,2.956,6.882,4.718,11.279,4.718
		h15.997c-4.398,0-8.397-1.762-11.279-4.718C205.772,228.353,203.929,224.354,203.929,219.957z"/>
</g>
<g style="opacity:0.2;">
	<path d="M427.886,219.957v-87.983V43.991c0-8.8-7.201-15.997-15.996-15.997h15.996c8.795,0,15.998,7.197,15.998,15.997v87.982
		v87.983c0,4.397-1.844,8.396-4.719,11.279c-2.875,2.956-6.873,4.718-11.279,4.718H411.89c4.404,0,8.404-1.762,11.279-4.718
		C426.042,228.353,427.886,224.354,427.886,219.957z"/>
</g>
<g style="opacity:0.2;">
	<path d="M184.652,231.236c1.351,1.383,2.96,2.476,4.718,3.276l3.28-3.276c-2.874-2.883-4.718-6.882-4.718-11.279v-87.983h-7.999
		v87.983C179.933,224.354,181.777,228.353,184.652,231.236z"/>
</g>
<g style="opacity:0.5;">
	<path style="fill:#FFFFFF;" d="M100.433,426.879v-15.114v-1.296c-2.718-1.984-5.405-4.234-7.998-6.702v15.114v1.039
		c-2.641,0.961-10.24,4.319-16.958,7.279c-5.202,2.32-9.842,4.476-11.279,4.952c-13.521,5.046-28.236,10.084-28.236,23.604
		c0,13.436,0,28.151,0,28.151h7.998c0-5.468,0-12.966,0-20.152c0-13.521,14.716-18.559,28.237-23.604
		c1.437-0.477,6.077-2.633,11.279-4.952c6.717-2.961,14.318-6.319,16.958-7.28L100.433,426.879L100.433,426.879z"/>
</g>
<path style="fill:#AC92EC;" d="M165.616,423.277c9.998,3.358,23.839,8.077,26.081,8.873c13.514,5.046,20.23,10.084,20.23,23.604
	c0,13.436,0,28.151,0,28.151H35.961c0,0,0-14.716,0-28.151c0-13.521,14.716-18.559,28.236-23.604
	c1.438-0.477,6.077-2.632,11.279-4.952l8.319,0.719c0,0,15.918,15.997,39.993,15.997c24.151,0,40.148-15.997,40.148-15.997
	L165.616,423.277z"/>
<g style="opacity:0.3;">
	<path style="fill:#FFFFFF;" d="M72.197,440.15c1.437-0.477,6.077-2.633,11.279-4.952c1.992-0.875,4.046-1.781,6.038-2.656
		c-3.64-2.585-5.718-4.624-5.718-4.624l-8.319-0.719c-5.202,2.32-9.842,4.476-11.279,4.952
		c-13.521,5.046-28.236,10.084-28.236,23.604c0,13.436,0,28.151,0,28.151h7.998c0-5.468,0-12.966,0-20.152
		C43.959,450.233,58.676,445.195,72.197,440.15z"/>
</g>
<g style="opacity:0.2;">
	<path d="M191.697,432.151c-2.241-0.796-16.083-5.515-26.081-8.873c-4.476-1.602-8.233-2.874-9.678-3.358v-16.239l-0.234-0.242
		c-2.522,2.452-5.132,4.655-7.764,6.624v1.616v16.239c1.445,0.484,5.202,1.758,9.678,3.359c9.998,3.358,23.839,8.076,26.081,8.873
		c13.513,5.046,20.23,10.084,20.23,23.604c0,7.187,0,14.685,0,20.152h7.998c0,0,0-14.716,0-28.151
		C211.927,442.234,205.21,437.197,191.697,432.151z"/>
</g>
<g>
	<path style="fill:#3A3847;" d="M412.194,447.914c-2.211,0-4.039-1.789-4.039-3.999c0-2.211,1.75-3.999,3.953-3.999h0.086
		c2.201,0,3.998,1.788,3.998,3.999C416.192,446.125,414.395,447.914,412.194,447.914z"/>
	<path style="fill:#3A3847;" d="M412.444,463.91c-2.211,0-4.039-1.789-4.039-3.999c0-2.211,1.75-4,3.953-4h0.086
		c2.201,0,3.998,1.789,3.998,4C416.442,462.121,414.645,463.91,412.444,463.91z"/>
	<path style="fill:#3A3847;" d="M315.938,191.971c-1.062,0-2.078-0.422-2.828-1.172l-46.373-46.382
		c-6.951-6.937-10.787-16.173-10.787-26.003c0-9.834,3.828-19.082,10.787-26.034c6.943-6.943,16.184-10.768,26.01-10.768
		c8.555,0,16.654,2.895,23.191,8.214c6.537-5.319,14.639-8.214,23.191-8.214c9.826,0,19.066,3.824,26.01,10.768
		c6.961,6.952,10.795,16.2,10.795,26.034c-0.008,9.83-3.842,19.066-10.795,26.007l-46.373,46.378
		C318.016,191.549,317.001,191.971,315.938,191.971z M292.747,89.611c-7.686,0-14.918,2.991-20.355,8.424
		c-5.443,5.444-8.443,12.682-8.443,20.379c0.008,7.69,3,14.915,8.443,20.344l43.547,43.559l43.547-43.555
		c5.443-5.433,8.443-12.657,8.451-20.348c0-7.697-3-14.935-8.451-20.375c-10.873-10.873-29.846-10.861-40.719-0.004
		c-1.562,1.562-4.094,1.562-5.656,0C307.675,92.602,300.442,89.611,292.747,89.611z"/>
	<path style="fill:#3A3847;" d="M411.921,487.905h-95.982c-2.211,0-3.998-1.788-3.998-3.999v-26.651
		c0-15.59,8.287-21.73,22.596-27.088c8.186-3.062,18.73-7.132,27.668-11.396c1.998-0.961,4.381-0.117,5.334,1.883
		c0.953,1.999,0.109,4.382-1.883,5.334c-9.217,4.398-19.973,8.554-28.314,11.678c-13.662,5.108-17.402,9.311-17.402,19.59v22.652
		h91.982c2.209,0,3.998,1.789,3.998,3.999C415.919,486.117,414.13,487.905,411.921,487.905z"/>
	<path style="fill:#3A3847;" d="M507.901,487.905h-95.98c-2.211,0-4-1.788-4-3.999c0-2.21,1.789-3.999,4-3.999h91.982v-22.652
		c0-10.279-3.742-14.497-17.396-19.59c-8.35-3.124-19.113-7.279-28.338-11.701c-1.992-0.952-2.836-3.343-1.883-5.334
		c0.953-2.008,3.367-2.844,5.336-1.883c8.943,4.288,19.496,8.357,27.689,11.42c14.303,5.342,22.59,11.498,22.59,27.088v26.651
		C511.901,486.117,510.112,487.905,507.901,487.905z"/>
	<path style="fill:#3A3847;" d="M412.171,425.013c-22.598,0-59.988-35.97-59.988-76.962c0-2.211,1.787-4,3.998-4s4,1.789,4,4
		c0,35.563,32.432,68.963,51.99,68.963s51.99-33.399,51.99-68.963c0-2.211,1.787-4,3.998-4s4,1.789,4,4
		C472.159,389.043,434.766,425.013,412.171,425.013z"/>
	<path style="fill:#3A3847;" d="M468.159,352.049c-2.211,0-3.998-1.789-3.998-3.999v-8.115c0-2.211,1.787-4,3.998-4s4,1.789,4,4
		v8.115C472.159,350.26,470.37,352.049,468.159,352.049z"/>
	<path style="fill:#3A3847;" d="M356.18,352.049c-2.211,0-3.998-1.789-3.998-3.999v-8.115c0-2.211,1.787-4,3.998-4s4,1.789,4,4
		v8.115C360.18,350.26,358.391,352.049,356.18,352.049z"/>
	<path style="fill:#3A3847;" d="M396.048,439.915c-1.039,0-2.062-0.406-2.826-1.172l-23.996-23.995
		c-1.562-1.562-1.562-4.093,0-5.655s4.092-1.562,5.654,0l21.965,21.965l13.545-6.718c1.992-0.984,4.373-0.188,5.365,1.796
		c0.977,1.984,0.172,4.383-1.805,5.359l-16.121,7.998C397.259,439.775,396.649,439.915,396.048,439.915z"/>
	<path style="fill:#3A3847;" d="M428.042,439.915c-0.602,0-1.211-0.141-1.781-0.422l-16.121-7.998
		c-1.977-0.977-2.781-3.375-1.805-5.359c0.992-1.983,3.375-2.78,5.367-1.796l13.543,6.718l21.965-21.965
		c1.562-1.562,4.094-1.562,5.654,0c1.562,1.562,1.562,4.093,0,5.655l-23.994,23.995
		C430.104,439.509,429.081,439.915,428.042,439.915z"/>
	<path style="fill:#3A3847;" d="M339.934,351.931c-0.688,0-1.375-0.18-1.992-0.531c-1.242-0.719-2.008-2.038-2.008-3.468
		c0-40.258,20.129-58.356,29.9-64.77l-4.623-4.279c-1.023-0.953-1.477-2.375-1.203-3.734c0.281-1.375,1.258-2.5,2.578-2.968
		c0.889-0.32,22.088-7.796,45.803-7.796c21.309,0,37.68,5.991,48.646,17.81c11.936,12.856,17.021,32.384,15.115,58.035
		c-0.125,1.688-1.297,3.109-2.93,3.562c-1.633,0.437-3.359-0.188-4.336-1.562l-15.73-22.395
		c-48.857-1.999-106.65,31.229-107.213,31.557C341.325,351.753,340.63,351.931,339.934,351.931z M371.749,277.736l3.537,3.272
		c0.992,0.922,1.453,2.28,1.227,3.616c-0.234,1.336-1.125,2.461-2.367,2.992c-1.154,0.516-27.322,12.474-29.994,53.458
		c16.881-8.873,64.91-31.634,107.387-29.127c1.219,0.07,2.336,0.695,3.037,1.694l9.945,14.154
		c-0.344-17.497-4.82-30.979-13.35-40.164c-9.389-10.115-23.785-15.247-42.781-15.247
		C393.634,272.385,379.606,275.572,371.749,277.736z"/>
	<path style="fill:#3A3847;" d="M387.925,255.95c-0.422,0-0.852-0.066-1.266-0.207l-47.373-15.79H203.96
		c-11.021,0-19.996-8.971-19.996-19.996V43.991c0-11.025,8.975-19.996,19.996-19.996h223.957c11.029,0,19.996,8.971,19.996,19.996
		v175.966c0,11.025-8.967,19.996-19.996,19.996h-35.992v11.998c0,1.285-0.617,2.491-1.664,3.245
		C389.573,255.692,388.753,255.95,387.925,255.95z M203.96,31.993c-6.616,0-11.998,5.382-11.998,11.998v175.966
		c0,6.616,5.382,11.998,11.998,11.998h135.974c0.43,0,0.859,0.07,1.266,0.207l42.725,14.239v-10.447c0-2.211,1.789-3.999,4-3.999
		h39.992c6.615,0,11.998-5.382,11.998-11.998V43.991c0-6.616-5.383-11.998-11.998-11.998H203.96z"/>
	<path style="fill:#3A3847;" d="M91.982,255.95c-0.773,0-1.547-0.227-2.219-0.672l-22.987-15.325h-46.78
		C8.975,239.953,0,230.982,0,219.957v-71.986c0-11.025,8.975-19.996,19.996-19.996h159.969c2.21,0,4,1.789,4,3.999
		c0,2.211-1.789,4-4,4H19.995c-6.616,0-11.998,5.382-11.998,11.997v71.986c0,6.616,5.381,11.998,11.998,11.998h47.991
		c0.789,0,1.562,0.234,2.218,0.672l17.778,11.849v-8.521c0-1.059,0.421-2.078,1.171-2.827c0.75-0.75,1.765-1.172,2.828-1.172h95.981
		c2.21,0,3.999,1.788,3.999,3.999s-1.789,3.999-3.999,3.999H95.981v11.998c0,1.473-0.812,2.831-2.109,3.526
		C93.279,255.794,92.63,255.95,91.982,255.95z"/>
	<path style="fill:#3A3847;" d="M155.719,175.966H35.992c-2.211,0-3.999-1.789-3.999-3.999c0-2.211,1.788-4,3.999-4h119.727
		c2.211,0,4,1.789,4,4C159.719,174.177,157.93,175.966,155.719,175.966z"/>
	<path style="fill:#3A3847;" d="M155.719,199.961H35.992c-2.211,0-3.999-1.789-3.999-3.999c0-2.211,1.788-3.999,3.999-3.999h119.727
		c2.211,0,4,1.788,4,3.999C159.719,198.172,157.93,199.961,155.719,199.961z"/>
	<path style="fill:#3A3847;" d="M123.975,423.918c-2.21,0-3.999-1.789-3.999-3.999c0-2.211,1.789-4,3.999-4
		c19.551,0,51.99-31.322,51.99-64.675c0-2.21,1.789-3.999,3.999-3.999s4,1.789,4,3.999
		C183.964,389.957,146.573,423.918,123.975,423.918z"/>
	<path style="fill:#3A3847;" d="M123.975,423.918c-22.605,0-59.988-33.962-59.988-72.674c0-2.21,1.789-3.999,3.999-3.999
		s4,1.789,4,3.999c0,33.353,32.431,64.675,51.99,64.675c2.21,0,4,1.789,4,4C127.975,422.129,126.186,423.918,123.975,423.918z"/>
	<path style="fill:#3A3847;" d="M211.958,487.905c-2.21,0-3.999-1.788-3.999-3.999v-28.222c0-10.411-3.788-14.676-17.614-19.848
		c-2.015-0.749-14.169-4.857-23.855-8.123c-5.46-1.844-10.139-3.437-11.826-4.015c-2.093-0.719-3.203-2.999-2.476-5.085
		c0.719-2.086,3.015-3.18,5.085-2.477c1.68,0.578,6.343,2.156,11.779,4c9.787,3.304,22.058,7.451,24.089,8.217
		c14.45,5.39,22.816,11.6,22.816,27.33v28.222C215.958,486.117,214.169,487.905,211.958,487.905z"/>
	<path style="fill:#3A3847;" d="M195.837,418.786c-2.21,0-4-1.789-4-3.999v-74.853c0-2.211,1.789-4,4-4s4,1.789,4,4v74.853
		C199.836,416.997,198.047,418.786,195.837,418.786z"/>
	<path style="fill:#3A3847;" d="M51.99,418.786c-2.211,0-4-1.789-4-3.999v-74.853c0-2.211,1.789-4,4-4c2.21,0,3.999,1.789,3.999,4
		v74.853C55.989,416.997,54.2,418.786,51.99,418.786z"/>
	<path style="fill:#3A3847;" d="M195.837,343.932c-2.21,0-4-1.788-4-3.998c0-37.493-30.502-67.987-67.987-67.987
		c-2.21,0-3.999-1.789-3.999-3.999c0-2.211,1.789-4,3.999-4c41.898,0,75.986,34.088,75.986,75.986
		C199.836,342.145,198.047,343.932,195.837,343.932z"/>
	<path style="fill:#3A3847;" d="M51.99,343.932c-2.211,0-4-1.788-4-3.998c0-41.898,34.087-75.986,75.985-75.986c2.21,0,4,1.789,4,4
		c0,2.21-1.789,3.999-4,3.999c-37.493,0-67.987,30.494-67.987,67.987C55.989,342.145,54.2,343.932,51.99,343.932z"/>
	<path style="fill:#3A3847;" d="M59.98,351.931c-1.937,0-3.632-1.406-3.944-3.374c-0.344-2.188,1.148-4.234,3.327-4.578
		c57.021-8.967,115.08-54.708,115.658-55.16c1.726-1.391,4.242-1.094,5.616,0.64c1.375,1.719,1.093,4.233-0.633,5.608
		c-2.437,1.938-60.262,47.507-119.399,56.817C60.394,351.917,60.191,351.931,59.98,351.931z"/>
	<path style="fill:#3A3847;" d="M195.837,351.931c-0.336,0-0.68-0.047-1.023-0.133c-38.751-10.193-57.231-31.291-57.997-32.181
		c-1.445-1.672-1.25-4.195,0.414-5.633c1.672-1.437,4.194-1.257,5.64,0.406c0.18,0.203,17.793,20.152,53.981,29.674
		c2.141,0.562,3.414,2.75,2.852,4.883C199.227,350.745,197.61,351.931,195.837,351.931z"/>
	<path style="fill:#3A3847;" d="M179.965,355.243c-2.21,0-3.999-1.788-3.999-3.999v-8.482c0-2.211,1.789-3.999,3.999-3.999
		s4,1.788,4,3.999v8.482C183.964,353.456,182.175,355.243,179.965,355.243z"/>
	<path style="fill:#3A3847;" d="M67.986,355.243c-2.21,0-3.999-1.788-3.999-3.999v-4.796c0-2.211,1.789-3.999,3.999-3.999
		s4,1.788,4,3.999v4.796C71.986,353.456,70.197,355.243,67.986,355.243z"/>
	<path style="fill:#3A3847;" d="M35.992,487.905c-2.211,0-3.999-1.788-3.999-3.999v-28.222c0-15.848,15.715-21.706,29.588-26.877
		l1.242-0.453c1.265-0.484,5.374-2.312,10.108-4.405c7.178-3.187,15.317-6.796,18.238-7.812c2.078-0.719,4.366,0.375,5.093,2.469
		c0.719,2.094-0.383,4.366-2.476,5.093c-2.601,0.906-10.927,4.593-17.614,7.562c-4.937,2.187-9.232,4.092-10.553,4.576l-1.25,0.469
		c-14.724,5.491-24.378,9.811-24.378,19.379v28.222C39.992,486.117,38.203,487.905,35.992,487.905z"/>
	<path style="fill:#3A3847;" d="M123.85,447.914c-25.495,0-42.14-16.48-42.835-17.184c-1.555-1.562-1.539-4.086,0.023-5.64
		c1.562-1.562,4.093-1.555,5.647,0c0.148,0.155,15.091,14.825,37.165,14.825c22.082,0,37.141-14.686,37.29-14.833
		c1.57-1.547,4.101-1.539,5.655,0.016c1.555,1.562,1.555,4.085,0,5.647C166.092,431.448,149.33,447.914,123.85,447.914z"/>
	<path style="fill:#3A3847;" d="M211.958,487.905H35.992c-2.211,0-3.999-1.788-3.999-3.999c0-2.21,1.788-3.999,3.999-3.999h175.966
		c2.211,0,4,1.789,4,3.999C215.958,486.117,214.169,487.905,211.958,487.905z"/>
</g>
<g>
</g>
<g>
</g>
<g>
</g>
<g>
</g>
<g>
</g>
<g>
</g>
<g>
</g>
<g>
</g>
<g>
</g>
<g>
</g>
<g>
</g>
<g>
</g>
<g>
</g>
<g>
</g>
<g>
</g>
</svg>
